<svg id="Layer_1" xmlns="http://www.w3.org/2000/svg" viewBox="-399 238 100 125"><style>.st0{display:none}.st1{display:inline}.st2{fill:#efefef}</style><path class="st0 st1" d="M-713.4 492.4v14.5c0 1.1-.5 1.9-1.2 1.9h-.3c-.7 0-1.2-.9-1.2-1.9v-4.2h-1v2.9c0 .7-.6 1.3-1.3 1.3h-.3c-.7 0-1.3-.6-1.3-1.3v-2.7h-1.9v5.9c0 .4-.6.7-1.7 1v19.5h7.7c.6 0 1.1.5 1.1 1.1v1.7c0 .6-.5 1.1-1.1 1.1h-62.4c-.6 0-1.1-.5-1.1-1.1v-1.7c0-.6.5-1.1 1.1-1.1h34.3l4.4-13.4c2.9-9.6.1-12.9-17.8-12.5-10.2 0-12.9 7.4-12.9 9.5v3c0 .7-.6 1.3-1.3 1.3h-1.3v3.8h-.2v1.5h-.4V521h-2.1v-.9h1.9V517h-1.3c-.7 0-1.3-.6-1.3-1.3v-22.4c0-.7.6-1.3 1.3-1.3h3.5c.7 0 19.9 7 33.7-.4 0 0-.1-.7.5-.7h9.6c4.1 0 5.7 0 5.7 1.4v4.3h1.8v-2.8c0-.7.6-1.3 1.3-1.3h.3c.7 0 1.3.6 1.3 1.3v2.8h1v-4.2c0-1.1.5-1.9 1.2-1.9h.3c.9-.1 1.4.8 1.4 1.9z"/><path class="st0 st1" d="M-718.5 529.7v-.9c-.2-7.5-3.1-10-3.1-10h-18.1s-.7-.6-.9-2.5v-10.8s.2-10.5-9.2-8.5c0 0-6 1.1-8.9.9-.1-.9-.6-1.6-1.3-2.1v-.8c0-.4-.4-.4-.4-.4v-1c.6 0 1.2-.5 1.2-1.2 0-.6-.5-1.2-1.2-1.2h-1.1c.2-.1.3-.2.4-.3 2.6-.3 12.4-1.8 12.4-1.8 1-.1 1.7-1.1 1.6-2.1s-1.1-1.7-2.1-1.6h-.2l-11.6 2.9c-.3-.4-.8-.6-1.3-.6-1 0-1.8.8-1.8 1.8v5h-1.1c-.5 0-.4.5-.4.5v.7c-.8.6-1.3 1.5-1.3 2.6v12.3c0 1.6 1.1 2.9 2.7 3.1v1.4h-.8v-.3c0-.2-.2-.3-.4-.3s-.4.1-.4.3v1.5c0 .2.2.3.4.3s.4-.1.4-.3v-.3h.8v1.1l.5.6h.2v1h-8.3s-3 2.5-3.1 10v.9l-1.7 1.7v4.2h59.8v-4.2l-1.7-1.6zm-44.6-40.2c0-.4.3-.8.8-.8.4 0 .8.3.8.8 0 .4-.3.8-.8.8-.4-.1-.8-.4-.8-.8zm12.7 26.8s-.2 2.4-1.5 2.4h-10.4v-1h.2l.5-.6V516h.8v.3c0 .2.2.3.4.3s.4-.1.4-.3v-1.5c0-.2-.2-.3-.4-.3s-.4.1-.4.3v.3h-.8v-1.4c1.6-.1 2.9-1.5 2.9-3.1v-5h6.9s1.6 0 1.6 2.1l-.2 8.6z"/><path class="st0 st1" d="M-714.9 516.5v1.7c0 .1-.1.2-.2.3-.1 0-5.6 2.9-12.7 3.7-2.5.3-5 .4-7.4.4-1.2 0-2.4 0-3.5-.1-3.1-.2-5.9-.6-8.1-1.2-4.3-1.2-7.2-1.7-8-1.8 0 0-2.8-.5-6.4-.5l-1 3c0 .1-.2.2-.3.2h-15.1c-.2 0-.3-.1-.3-.3v-6.1c0-.1.1-.3.2-.3s.3 0 .4.1c0 0 .8 1.2 2.9 1.3 2 .1 8.9-.1 8.9-.1 1.6 0 7 0 10.9.6.8.1 3.9.6 8.4 1.9 2.9.8 6.7 1.3 11 1.3 2.4 0 4.8-.1 7.2-.4 6.2-.7 11.8-3.6 12.4-3.9l.2-.1h.3c.1.1.2.2.2.3zm-58.6-.3s3.3.1 8.5-.1c0 0 2.1 0 5.1.1 1.7.1 3.4.2 4.9.5 2.3.3 4.6.8 6.8 1.4.6.2 1.2.3 1.9.5 2.9.8 6.7 1.3 10.9 1.3 2.3-.1 4.7-.2 7-.5 6.9-.8 11.7-3.4 11.7-3.4.7-.3.6-1.2.6-1.2-.1-2-1.4-3-1.4-3-.6-.7-3.6-.9-4.9-.7-4 .5-8.8-.8-8.8-.8-2.2-.5-6.1-2.9-8.8-4.7l-2.1 2.1c-.1.1-.1.1-.2.1s-.2 0-.2-.1c-.1-.1-.1-.3 0-.5l2-2c-1.3-.9-2.3-1.6-2.3-1.6l-2.4 2.4c-.1.1-.1.1-.2.1s-.2 0-.2-.1c-.1-.1-.1-.3 0-.5l2.3-2.3c-.8-.6-1.5-1.1-2.3-1.5l-2.6 2.6c-.1.1-.1.1-.2.1s-.2 0-.2-.1c-.1-.1-.1-.3 0-.5l2.5-2.5c-4.7-2.8-8.2-3.2-8.2-3.2-.7-.2-.8.3-.8.3v.8c-1.5.6-5.2 1.1-9 1.5-4.9.5-9.8-.9-11.6-1.2-.5-.1-.7.4-.7.4l-.5 1.1s-2.3 6-1.4 10.2c0 0 0 .6.2 1.5.2 1.1.8 3.7 4.6 3.5z"/><path class="st0 st1" d="M-715.1 519.7v1.7c0 .1-.1.2-.2.3-.1 0-5.5 2.9-12.6 3.7-2.5.3-4.9.4-7.4.4-1.2 0-2.4 0-3.5-.1-3-.2-5.8-.6-8-1.2-4.3-1.2-7.2-1.7-7.9-1.8 0 0-2.8-.5-6.3-.5l-1 2.9c0 .1-.2.2-.3.2h-15c-.2 0-.3-.1-.3-.3v-6c0-.1.1-.3.2-.3s.3 0 .4.1c0 0 .8 1.2 2.9 1.3 2 .1 8.9-.1 8.9-.1 1.6 0 7 0 10.9.6.8.1 3.8.6 8.3 1.9 2.9.8 6.7 1.3 10.9 1.3 2.4 0 4.8-.1 7.2-.4 6.2-.7 11.7-3.5 12.4-3.9l.2-.1h.3c-.2.1-.1.2-.1.3zm-58.2-.2s3.3.1 8.4-.1c0 0 2.1 0 5.1.1 1.6.1 3.4.2 4.9.5 2.3.3 4.6.8 6.8 1.4.6.2 1.2.3 1.9.5 2.9.8 6.6 1.2 10.9 1.2 2.3-.1 4.7-.2 6.9-.5 6.8-.8 11.7-3.3 11.7-3.3.7-.3.6-1.2.6-1.2-.1-2-1.4-2.9-1.4-2.9-.6-.7-3.5-.9-4.9-.7-3.9.5-8.8-.8-8.8-.8-2.2-.5-6.1-2.9-8.8-4.7h-.1c-.4-.3-1-.8-1.6-1.4l-2.2 1.3c-.1 0-.2.1-.2 0-.1 0-.1-.1-.2-.1-.1-.2 0-.4.1-.4l2.1-1.2c-.6-.6-1.2-1.3-1.9-2.1l-2.4 1.4c-.1 0-.2.1-.2 0-.1 0-.1-.1-.2-.1-.1-.2 0-.3.1-.4l2.3-1.3c-.6-.7-1.2-1.4-1.7-2.1l-2.7 1.5c-.1 0-.2.1-.2 0-.1 0-.1-.1-.2-.2-.1-.2 0-.3.1-.4l2.6-1.5c-2.4-3-4.5-5.9-4.9-6.4-.6-1-4.3-.2-5-.1 0 0-4.6 1.4-8.3 1.4-5 0-8.8 0-10.6-.3-.5-.1-.9.4-.9.4l-.3 1.1s-2.4 12.5-1.6 16.7c0 0 0 .6.2 1.5.2.7.8 3.3 4.6 3.2z"/><path class="st0 st1" d="M-712.5 515.4c-.3-2.1-1.8-3-1.8-3-.7-.7-3.9-.6-5.3-.4-4.2.9-9.5-.2-9.5-.2-3.9-.5-12.6-7.6-12.6-7.6-6.8-5-9.8-6-9.8-6-.7-.2-.8.4-.8.4l-1.6 13.7.2.1c.7.2 1.3.6 1.7 1.2v.2c.3.4.4.9.5 1.5v.2c0 1.5-1 2.8-2.3 3.1l-.4 1.7v.3c.5 0 3.8.3 8.9 1.3 5.5 1.1 13.1.8 20-.5 7.3-1.4 12.3-4.5 12.3-4.5.6-.6.5-1.5.5-1.5zm-38.7-9.4c-.4 0-.6-.3-.6-.6 0-.4.3-.6.6-.6.4 0 .6.3.6.6.1.4-.2.6-.6.6zm1.3 10.5c-.4 0-.6-.3-.6-.6 0-.4.3-.6.6-.6.4 0 .6.3.6.6s-.2.6-.6.6zm15.4 4c-.4 0-.6-.3-.6-.6 0-.4.3-.6.6-.6s.6.3.6.6c.1.3-.2.6-.6.6zm-22.1-7.5c-.2 0-.3 0-.5.1l-.1-.4-5.5-7.7-1.5-1.8-1.8.5c-4.3 1.5-10.5 1.6-12.4 1.6-.6 0-.7.5-.7.5l-.3 1.2s-1.6 6.7-.1 11c0 0 .1.6.4 1.6.3.9 1.3 3.6 5.3 2.9 0 0 3.5-.4 9-1.2 0 0 4.8-.7 8.3-.7l.4-2.6h.2c1.1-.3 1.9-1.3 1.9-2.5 0-1.4-1.2-2.5-2.6-2.5zm-8.6-6.7c-.4 0-.7-.3-.7-.6 0-.4.3-.7.6-.7.4 0 .7.3.7.6.1.4-.2.7-.6.7zm6.1 10.3c-.4 0-.7-.3-.7-.6 0-.4.3-.7.6-.7.4 0 .7.3.7.6.1.4-.2.7-.6.7z"/><path class="st0 st1" d="M-713.1 516.7s-5 3.2-12.3 4.5c-6.9 1.3-14.5 1.7-20 .5-5.1-1-8.4-1.3-8.9-1.3v-.3l.4-1.7c1.3-.3 2.3-1.6 2.3-3.1v-.2c0-.5-.2-1.1-.5-1.5v-.2c-.4-.6-1-1-1.7-1.2l-.2-.1 1.6-13.7s.1-.6.8-.4c0 0 3 1 9.8 6 0 0 8.7 7.1 12.6 7.6 0 0 5.3 1 9.5.2 1.4-.3 4.7-.4 5.3.4 0 0 1.5 1 1.8 3 .1.2.2 1.1-.5 1.5zm-43.5-3.7c-.2 0-.3 0-.5.1l-.1-.4-5.5-7.7-1.5-1.8-1.8.5c-4.3 1.5-10.5 1.6-12.4 1.6-.6 0-.7.5-.7.5l-.3 1.2s-1.6 6.7-.1 11c0 0 .1.6.4 1.6.3.9 1.3 3.6 5.3 2.9 0 0 3.5-.4 9-1.2 0 0 4.8-.7 8.3-.7l.6-2.6h.3c.7-.3 1.8-1.3 1.8-2.5-.1-1.4-1.4-2.5-2.8-2.5z"/><path class="st0 st1" d="M-720.3 514.7c-.7-5.4-6.2-4.8-6.2-4.8s-2.7 0-5.5 1.8c-2.8 1.9-7.3 5.8-12.2 2.3 0 0-.9-.6-.7-2.1.2-1.2 3.8-4.3 10.5-2.8 0 0 6.9 2.2 10.1-.6l7.6-8.2s1.2-1.1 2-1.1c.1 0 .3 0 .4.1-.1 0-.1-.1-.1-.1s.6.3.8-.2c.2-.6-1.2-1.9-3.6.2l-6.6 6.6s-2.2 3-6.1 2.2c-3.6-.8-10.6-3.8-16 1.9v-.1l-23.3-4.7s-7.5-1.3-10.7 1l28.2 6.3-27.7 4.5c3 2.6 10.6 2 10.6 2l22.6-3.6c.3.3.6.5.6.5 1 1.3 4.9 2.4 4.9 2.4 5.3 7.2 14 3.9 14 3.9s7.1-2 6.4-7.4zm-28.6-1.1c-.5-.4-.5-1.1-.1-1.5.4-.5 1.1-.5 1.5-.1.5.4.5 1.1.1 1.5-.4.4-1.1.5-1.5.1zm23.5 6.3c-7.6 3.2-11.7-.3-11.7-.3-2.5-1.7-2.1-2.4-.7-2.6 1.4-.3 3.7-1.2 5.6-2.7s2.9-1.9 2.9-1.9c5.3-2.4 6.8 1.5 6.8 1.5 1.5 3.6-2.9 6-2.9 6z"/><path class="st0 st1" d="M-720.6 515.2c-.4-5.2-5.8-4.9-5.8-4.9s-2.5-.1-5.3 1.5c-2.7 1.7-7.2 5.2-11.7 1.7 0 0-.7-.8-.6-2 .2-1.2 3.8-4 10.1-2.2 0 0 6.5 2.3 9.6-.2l8.6-8.3s1.2-1 2-1c.1 0 .2 0 .3.1-.1 0-.1-.1-.1-.1s.6.4.7-.2c.2-.6-1-1.9-3.4.1l-7.6 6.8s-2.3 2.8-5.9 1.9c-3.4-.9-9.8-4-15.1 1v-.1l-27.1-.9s-7.3.1-9.9 2.8l22.2 1-21.8.4c2.5 2.8 9.8 3.2 9.8 3.2l27-.2c1.2 1.1 4.3 2.1 4.3 2.1 4.8 7.1 13.2 4.3 13.2 4.3s7-1.7 6.5-6.8zm-26.6-1.9c-.5-.4-.5-1.1-.1-1.5.4-.5 1.1-.5 1.5-.1.5.4.5 1.1.1 1.5-.3.4-1 .5-1.5.1zm21.6 6.6c-7.3 2.8-11.6-1.1-11.6-1.1-1.2-.7-1.5-2.1-.1-2.2 1.4-.2 3.6-1 5.5-2.4 1.9-1.3 2.9-1.7 2.9-1.7 5.1-2.1 6.4 1.7 6.4 1.7 1.2 3.6-3.1 5.7-3.1 5.7z"/><path class="st0 st1" d="M-727.4 504.5v10.3s-2-1.1-4.6-1.2v-1.7h-1v1.8c-.9.1-1.9.3-2.9.7v-2.9h-1v3.4c-1.3.6-2.3.7-3 .7.1-.2.1-.4.1-.6v-9c0-.5-.2-.9-.4-1.3 1 .1 2.3 0 3.7-.5 3.5-1.4 8.4-.6 9.1.3zm-13.4 1c.1.2.1.3.1.5v8.8c0 .2 0 .3-.1.4-.3.9-1.7 1.5-3.5 2v-2.4h-1v2.6c-1.1.2-2.3.4-3.5.5V514h-1v4c-1.5.1-2.9.2-4.2.2v-2.6h-1v2.6c-1.2 0-2.7-.1-4.2-.2v-4.1h-1v4c-1.4-.1-2.8-.3-4.1-.6v-2.6h-1v2.4c-2.2-.5-3.7-1.3-3.7-2.5V506c0-2.8 9.2-3.5 14-3.5 3.7 0 9.8.4 12.5 1.8l.6.3c.2.1.3.2.4.4 0 0 0 .1.1.1.5.2.5.3.6.4zm-17.5.5c0 .3 1.6.5 3.6.5s3.6-.2 3.6-.5-1.6-.5-3.6-.5-3.6.2-3.6.5zm16.2 1.7l-.3-.6c-2 1-6.9 1.8-12.3 1.8s-10.1-.7-12.2-1.7l-.3.6c2.1 1.1 7 1.8 12.5 1.8 5.5-.1 10.5-.8 12.6-1.9zm15.6-2.8v10.3l1.9 1.2v-10.3l-1.9-1.2z"/><path class="st0 st1" d="M-755.6 523.6l17.1-14.9v7.7l-12.7 11h-3.3c-.6 0-1.1-.5-1.1-1.1v-2.7zm17.1-28.9c0-.6-.5-1.1-1.1-1.1h-1.1l-14.9 12.9v7.1l17.1-14.9v-4zm-1.1 32.7c.6 0 1.1-.5 1.1-1.1v-1.7l-3.2 2.8h2.1zm-10.6 2.4h5.8v-2.4h1.4l4.5-3.9v-6l-11.8 10.2c.1 0 .1 2.1.1 2.1zm-4.3-36.2c-.6 0-1.1.5-1.1 1.1v2.3l3.9-3.4h-2.8zm10.1 0V491h-5.8v2.6h-.2l-5.2 4.5v7.4l13.6-11.8h-2.4v-.1zm15.1 5c-.3.2-.5.4-.8.6l-.7.6-7.7 6.2v1.5l-17.1 14.9V520l-11.3 9.2 11.3-10.9v-3.4l17.1-14.9v1.8l4.7-4.5 1.7-1.5.1-.1.1-.1.9-.8.5-.4s2.3-1.9 3.5-.8l.1.1h.1c.8.8-.4 3-2.5 4.9zm1.4-3.9c-.3-.4-1.4.1-2.5 1-1 .9-1.6 1.9-1.3 2.3.3.4 1.4-.1 2.5-1s1.6-1.9 1.3-2.3z"/><path d="M-714.2 506.4c-2.9-4.5-9.3-5.1-9.3-5.1-7-.5-9.7 4.3-9.7 4.3h-3.7s-2.1.2-6.1-1.6c-5-2.1-13.2-8.3-25.1-9.4 0 0-4.1-.7-10.8.7 0 0-1.5.9 0 1.2 10.6-1.1 16.9 1.2 20.2 2.3 3.3 1.1 9.4 5.1 9.4 5.1 3.1 2.1 7.3 3.6 7.3 3.6l4.1 1.7.2.1c-.8.8-2.8 1.8-2.8 1.8-3.7 1.5-13.9 8-13.9 8l-3 1.5c-6.7 3.3-10.5 3.7-10.5 3.7-1.8.7-9.5.4-9.5.4-1.5.8 0 1.6 0 1.6 6.1.5 9.7 0 9.7 0 7.7-.8 20.2-7.8 20.2-7.8s5.1-3.2 9.1-4.5c2.8-.9 3.9-1.8 4.4-2.3h4.6l-.9 5.6.2.3h6.1c.1 0 .2-.2.2-.2l-.9-5.9h1s3.9 0 7.8 3.9c0 0 .6.8 1.2.4s-2.1-6-8.9-7.1l-4.5-.4-1.3-1s.9-.7 1.1-.8c1.7-1.2 4.1-1.3 4.1-1.3s4.3-.6 7.5 1.2l2.1 1.3c1.5.8.4-1.3.4-1.3zm-19-.9c.1 0 .4-.2 0 0zm.5 4.3c-.6 0-1.2-.5-1.2-1.2s.5-1.2 1.2-1.2c.6 0 1.1.5 1.1 1.2s-.5 1.2-1.1 1.2z" class="st0 st1"/><path d="M-719.8 534c0 .2-.1.3-.2.4l-3.6 3.6c-.1.1-.3.2-.4.2-.2 0-.3 0-.4-.2l-35.6-39.3-5.5 6c-1.5 1.6-1.2 3.8-1.2 3.8l.1.6v.4l-.5 1.1-.3.3h-.4l-5.6-3.2-.3-.3v-.4l1-1.3.3-.3.7-.2s2.5-.6 4.3-5.6c0 0 1.5-4.5 3.3-6.6 1.8-2 4.5-3.2 8.8-3.8 4.4-.6 8.2-2.4 8.2-2.4s2.5-1.1 4.6-3.8l.6-.2.5.5-.3 1.8-2.5 2.3s-3.9 3.3-9.6 5.8c-1.6.7-3 1.9-3.1 1.9l36.7 38.4c.3.2.4.3.4.5z" class="st0 st1"/><path class="st0 st1" d="M-724.6 522.1c.4.5.4.9.4.9v4.3h-8.3s-1.5 0-2.1-1.1c0 0-1.5-2.5-8.3-2.3h-.6c-6.8-.2-8.3 2.3-8.3 2.3-.6 1.1-2.1 1.1-2.1 1.1h-8.3V523s0-.4.4-.9l3.1-3.6c.1-.2.5-.3.5-.3l1.6-.5h26.3l2.1.5s.4.1.5.3l3.1 3.6zm-30.8-28.6v1.1s-.5.7-2.6.7h-1.6v.9h-12.3s-1.8-.1-7.7-.4l-.9-.1h-.1c-.3 0-.6.2-.6.6 0 .1 0 .2.1.3l.1.1s6.6 10.9 21.1 11h3.1c2.9 0 5.4 2.5 5.4 5.3 0 1.6-.9 3-2.2 3.7h20.5c-1.4-1-2.4-2.6-2.4-4.5 0-3.8 3.5-10.6 15.8-12.7l5.1-1.1s1.8-.2 1.8-1.4v-.9l.5-.5v-2c.1-.1-43.1-.1-43.1-.1z"/><path d="M-734.2 513.6v-.5c.3-3 3.1-4.3 6.2-4.3v-14.2h-33.6v15.2h2.8c3.3 0 6.3 1.5 6.3 4.8 0 1.8-1 3.4-2.5 4.2h23.5a6.31 6.31 0 0 1-2.7-5.2zm-27.9-17.1h-4.5v1.1h-14.7c-.4 0-.6.3-.6.6 0 .1 0 .3.1.4 0 0 3.2 9.3 19.7 9.6v-11.7zm36.6-2h-2v14.2h1.4l6.4-5.5h4.2v-4.3zm-4.1 24.8h-26.8l-5.1 3.4c-.5.6-.4 1-.4 1v3.5h7.7l1.2-1.3h20.1l1.2 1.3h7.7v-3.5s0-.5-.4-1l-5.2-3.4z" class="st0 st1"/><path class="st2" d="M-355 247v26.8l7.4 5.1v46.7h-12.3l13.2 19.4 13.2-19.4h-12.3v-46.7l7.4-5.1V247l-8.4 5-8.2-5zm14.8 25.8l-5.6 3.8v-18h-1.8v18l-5.6-3.8v-22.6l6.5 3.9 6.6-3.9-.1 22.6zm-6.5 68.9l-9.8-14.3h19.5l-9.7 14.3z"/></svg>